<svg id="visual" viewBox="0 0 900 600" width="900" height="600" xmlns="http://www.w3.org/2000/svg" xmlns:xlink="http://www.w3.org/1999/xlink" version="1.1"><path d="M0 25L9.3 26C18.7 27 37.3 29 56.2 29C75 29 94 27 112.8 31C131.7 35 150.3 45 169 50C187.7 55 206.3 55 225 50C243.7 45 262.3 35 281.2 32C300 29 319 33 337.8 34C356.7 35 375.3 33 394 36C412.7 39 431.3 47 450 45C468.7 43 487.3 31 506.2 31C525 31 544 43 562.8 47C581.7 51 600.3 47 619 45C637.7 43 656.3 43 675 44C693.7 45 712.3 47 731.2 45C750 43 769 37 787.8 36C806.7 35 825.3 39 844 37C862.7 35 881.3 27 890.7 23L900 19L900 0L890.7 0C881.3 0 862.7 0 844 0C825.3 0 806.7 0 787.8 0C769 0 750 0 731.2 0C712.3 0 693.7 0 675 0C656.3 0 637.7 0 619 0C600.3 0 581.7 0 562.8 0C544 0 525 0 506.2 0C487.3 0 468.7 0 450 0C431.3 0 412.7 0 394 0C375.3 0 356.7 0 337.8 0C319 0 300 0 281.2 0C262.3 0 243.7 0 225 0C206.3 0 187.7 0 169 0C150.3 0 131.7 0 112.8 0C94 0 75 0 56.2 0C37.3 0 18.7 0 9.3 0L0 0Z" fill="#43bb79"></path><path d="M0 157L9.3 161C18.7 165 37.3 173 56.2 178C75 183 94 185 112.8 186C131.7 187 150.3 187 169 175C187.7 163 206.3 139 225 127C243.7 115 262.3 115 281.2 140C300 165 319 215 337.8 213C356.7 211 375.3 157 394 151C412.7 145 431.3 187 450 201C468.7 215 487.3 201 506.2 192C525 183 544 179 562.8 171C581.7 163 600.3 151 619 162C637.7 173 656.3 207 675 215C693.7 223 712.3 205 731.2 201C750 197 769 207 787.8 211C806.7 215 825.3 213 844 197C862.7 181 881.3 151 890.7 136L900 121L900 17L890.7 21C881.3 25 862.7 33 844 35C825.3 37 806.7 33 787.8 34C769 35 750 41 731.2 43C712.3 45 693.7 43 675 42C656.3 41 637.7 41 619 43C600.3 45 581.7 49 562.8 45C544 41 525 29 506.2 29C487.3 29 468.7 41 450 43C431.3 45 412.7 37 394 34C375.3 31 356.7 33 337.8 32C319 31 300 27 281.2 30C262.3 33 243.7 43 225 48C206.3 53 187.7 53 169 48C150.3 43 131.7 33 112.8 29C94 25 75 27 56.2 27C37.3 27 18.7 25 9.3 24L0 23Z" fill="#36b26e"></path><path d="M0 193L9.3 199C18.7 205 37.3 217 56.2 220C75 223 94 217 112.8 216C131.7 215 150.3 219 169 213C187.7 207 206.3 191 225 179C243.7 167 262.3 159 281.2 181C300 203 319 255 337.8 255C356.7 255 375.3 203 394 200C412.7 197 431.3 243 450 258C468.7 273 487.3 257 506.2 241C525 225 544 209 562.8 201C581.7 193 600.3 193 619 207C637.7 221 656.3 249 675 254C693.7 259 712.3 241 731.2 237C750 233 769 243 787.8 245C806.7 247 825.3 241 844 224C862.7 207 881.3 179 890.7 165L900 151L900 119L890.7 134C881.3 149 862.7 179 844 195C825.3 211 806.7 213 787.8 209C769 205 750 195 731.2 199C712.3 203 693.7 221 675 213C656.3 205 637.7 171 619 160C600.3 149 581.7 161 562.8 169C544 177 525 181 506.2 190C487.3 199 468.7 213 450 199C431.3 185 412.7 143 394 149C375.3 155 356.7 209 337.8 211C319 213 300 163 281.2 138C262.3 113 243.7 113 225 125C206.3 137 187.7 161 169 173C150.3 185 131.7 185 112.8 184C94 183 75 181 56.2 176C37.3 171 18.7 163 9.3 159L0 155Z" fill="#28aa63"></path><path d="M0 271L9.3 275C18.7 279 37.3 287 56.2 299C75 311 94 327 112.8 333C131.7 339 150.3 335 169 321C187.7 307 206.3 283 225 260C243.7 237 262.3 215 281.2 233C300 251 319 309 337.8 322C356.7 335 375.3 303 394 298C412.7 293 431.3 315 450 327C468.7 339 487.3 341 506.2 325C525 309 544 275 562.8 264C581.7 253 600.3 265 619 280C637.7 295 656.3 313 675 320C693.7 327 712.3 323 731.2 328C750 333 769 347 787.8 348C806.7 349 825.3 337 844 315C862.7 293 881.3 261 890.7 245L900 229L900 149L890.7 163C881.3 177 862.7 205 844 222C825.3 239 806.7 245 787.8 243C769 241 750 231 731.2 235C712.3 239 693.7 257 675 252C656.3 247 637.7 219 619 205C600.3 191 581.7 191 562.8 199C544 207 525 223 506.2 239C487.3 255 468.7 271 450 256C431.3 241 412.7 195 394 198C375.3 201 356.7 253 337.8 253C319 253 300 201 281.2 179C262.3 157 243.7 165 225 177C206.3 189 187.7 205 169 211C150.3 217 131.7 213 112.8 214C94 215 75 221 56.2 218C37.3 215 18.7 203 9.3 197L0 191Z" fill="#16a158"></path><path d="M0 313L9.3 317C18.7 321 37.3 329 56.2 341C75 353 94 369 112.8 375C131.7 381 150.3 377 169 371C187.7 365 206.3 357 225 332C243.7 307 262.3 265 281.2 275C300 285 319 347 337.8 367C356.7 387 375.3 365 394 368C412.7 371 431.3 399 450 417C468.7 435 487.3 443 506.2 418C525 393 544 335 562.8 312C581.7 289 600.3 301 619 320C637.7 339 656.3 365 675 375C693.7 385 712.3 379 731.2 388C750 397 769 421 787.8 427C806.7 433 825.3 421 844 396C862.7 371 881.3 333 890.7 314L900 295L900 227L890.7 243C881.3 259 862.7 291 844 313C825.3 335 806.7 347 787.8 346C769 345 750 331 731.2 326C712.3 321 693.7 325 675 318C656.3 311 637.7 293 619 278C600.3 263 581.7 251 562.8 262C544 273 525 307 506.2 323C487.3 339 468.7 337 450 325C431.3 313 412.7 291 394 296C375.3 301 356.7 333 337.8 320C319 307 300 249 281.2 231C262.3 213 243.7 235 225 258C206.3 281 187.7 305 169 319C150.3 333 131.7 337 112.8 331C94 325 75 309 56.2 297C37.3 285 18.7 277 9.3 273L0 269Z" fill="#069750"></path><path d="M0 337L9.3 347C18.7 357 37.3 377 56.2 394C75 411 94 425 112.8 427C131.7 429 150.3 419 169 408C187.7 397 206.3 385 225 364C243.7 343 262.3 313 281.2 324C300 335 319 387 337.8 401C356.7 415 375.3 391 394 397C412.7 403 431.3 439 450 458C468.7 477 487.3 479 506.2 458C525 437 544 393 562.8 372C581.7 351 600.3 353 619 369C637.7 385 656.3 415 675 422C693.7 429 712.3 413 731.2 423C750 433 769 469 787.8 479C806.7 489 825.3 473 844 450C862.7 427 881.3 397 890.7 382L900 367L900 293L890.7 312C881.3 331 862.7 369 844 394C825.3 419 806.7 431 787.8 425C769 419 750 395 731.2 386C712.3 377 693.7 383 675 373C656.3 363 637.7 337 619 318C600.3 299 581.7 287 562.8 310C544 333 525 391 506.2 416C487.3 441 468.7 433 450 415C431.3 397 412.7 369 394 366C375.3 363 356.7 385 337.8 365C319 345 300 283 281.2 273C262.3 263 243.7 305 225 330C206.3 355 187.7 363 169 369C150.3 375 131.7 379 112.8 373C94 367 75 351 56.2 339C37.3 327 18.7 319 9.3 315L0 311Z" fill="#038b4a"></path><path d="M0 409L9.3 414C18.7 419 37.3 429 56.2 445C75 461 94 483 112.8 487C131.7 491 150.3 477 169 468C187.7 459 206.3 455 225 439C243.7 423 262.3 395 281.2 399C300 403 319 439 337.8 451C356.7 463 375.3 451 394 460C412.7 469 431.3 499 450 513C468.7 527 487.3 525 506.2 504C525 483 544 443 562.8 427C581.7 411 600.3 419 619 439C637.7 459 656.3 491 675 497C693.7 503 712.3 483 731.2 486C750 489 769 515 787.8 521C806.7 527 825.3 513 844 490C862.7 467 881.3 435 890.7 419L900 403L900 365L890.7 380C881.3 395 862.7 425 844 448C825.3 471 806.7 487 787.8 477C769 467 750 431 731.2 421C712.3 411 693.7 427 675 420C656.3 413 637.7 383 619 367C600.3 351 581.7 349 562.8 370C544 391 525 435 506.2 456C487.3 477 468.7 475 450 456C431.3 437 412.7 401 394 395C375.3 389 356.7 413 337.8 399C319 385 300 333 281.2 322C262.3 311 243.7 341 225 362C206.3 383 187.7 395 169 406C150.3 417 131.7 427 112.8 425C94 423 75 409 56.2 392C37.3 375 18.7 355 9.3 345L0 335Z" fill="#017f44"></path><path d="M0 601L9.3 601C18.7 601 37.3 601 56.2 601C75 601 94 601 112.8 601C131.7 601 150.3 601 169 601C187.7 601 206.3 601 225 601C243.7 601 262.3 601 281.2 601C300 601 319 601 337.8 601C356.7 601 375.3 601 394 601C412.7 601 431.3 601 450 601C468.7 601 487.3 601 506.2 601C525 601 544 601 562.8 601C581.7 601 600.3 601 619 601C637.7 601 656.3 601 675 601C693.7 601 712.3 601 731.2 601C750 601 769 601 787.8 601C806.7 601 825.3 601 844 601C862.7 601 881.3 601 890.7 601L900 601L900 401L890.7 417C881.3 433 862.7 465 844 488C825.3 511 806.7 525 787.8 519C769 513 750 487 731.2 484C712.3 481 693.7 501 675 495C656.3 489 637.7 457 619 437C600.3 417 581.7 409 562.8 425C544 441 525 481 506.2 502C487.3 523 468.7 525 450 511C431.3 497 412.7 467 394 458C375.3 449 356.7 461 337.8 449C319 437 300 401 281.2 397C262.3 393 243.7 421 225 437C206.3 453 187.7 457 169 466C150.3 475 131.7 489 112.8 485C94 481 75 459 56.2 443C37.3 427 18.7 417 9.3 412L0 407Z" fill="#00733e"></path></svg>